<svg width="360" height="360" viewBox="0 0 360 360" fill="none" xmlns="http://www.w3.org/2000/svg">
<path d="M197.802 229.09L156.175 240.173L123.445 118.802L165.072 107.719C178.198 104.225 190.221 103.721 201.141 106.209C212.199 108.46 221.584 113.455 229.298 121.193C237.149 128.694 242.759 138.69 246.127 151.181C249.446 163.486 249.618 174.93 246.643 185.514C243.857 196.047 238.267 205.128 229.874 212.758C221.618 220.152 210.927 225.596 197.802 229.09Z" style="fill:black;"/>
<path fill-rule="evenodd" clip-rule="evenodd" d="M123.886 339.499L218.716 314.251C250.511 305.786 276.936 292.371 297.991 274.007C318.971 255.366 333.383 233.43 341.227 208.198C348.996 182.69 348.924 155.264 341.011 125.919C333.023 96.2984 319.284 72.5108 299.795 54.5565C280.306 36.6022 256.823 24.9034 229.348 19.46C201.799 13.7397 172.126 15.1123 140.331 23.5776L45.5008 48.8254C32.1265 52.3862 25.4393 54.1667 21.0284 58.113C17.1485 61.5842 14.4741 66.1869 13.3886 71.2612C12.1546 77.03 13.9464 83.6746 17.5301 96.9638L75.4388 311.706C79.0225 324.995 80.8143 331.64 84.7859 336.023C88.2794 339.878 92.9115 342.535 98.0184 343.614C103.824 344.84 110.511 343.06 123.886 339.499ZM67.8505 93.7391L120.64 289.499L210.082 265.686C231.458 259.994 249.222 250.969 263.373 238.609C277.474 226.062 287.158 211.295 292.424 194.306C297.64 177.131 297.584 158.663 292.254 138.9C286.875 118.952 277.63 102.929 264.521 90.8332C251.412 78.7373 235.619 70.8526 217.144 67.179C198.619 63.3191 178.668 64.2347 157.292 69.9259L67.8505 93.7391Z" style="fill:black;"/>
</svg>
